<mxfile host="app.diagrams.net" modified="2021-10-04T10:46:29.125Z" agent="5.0 (Windows NT 10.0; Win64; x64) AppleWebKit/537.36 (KHTML, like Gecko) Chrome/94.0.4606.61 Safari/537.36" etag="B7UhmHk59Qt4cjzb8PMU" version="15.4.1" type="github">
  <diagram id="9wtomiZGBZufJcKfehjM" name="Page-1">
    <mxGraphModel dx="677" dy="351" grid="1" gridSize="10" guides="1" tooltips="1" connect="1" arrows="1" fold="1" page="1" pageScale="1" pageWidth="850" pageHeight="1100" math="0" shadow="0">
      <root>
        <mxCell id="0" />
        <mxCell id="1" parent="0" />
        <mxCell id="8J_cx7qvvRJhHvNwfViD-33" value="" style="rounded=0;whiteSpace=wrap;html=1;fillColor=#E6E6E6;" vertex="1" parent="1">
          <mxGeometry y="10" width="520" height="330" as="geometry" />
        </mxCell>
        <mxCell id="8J_cx7qvvRJhHvNwfViD-2" value="" style="verticalLabelPosition=bottom;verticalAlign=top;html=1;shape=card;whiteSpace=wrap;size=20;arcSize=12;direction=west;" vertex="1" parent="1">
          <mxGeometry x="10" y="20" width="100" height="60" as="geometry" />
        </mxCell>
        <mxCell id="8J_cx7qvvRJhHvNwfViD-3" value="sd:THSH&lt;br&gt;Kiểm tra lớp" style="text;html=1;strokeColor=none;fillColor=none;align=center;verticalAlign=middle;whiteSpace=wrap;rounded=0;" vertex="1" parent="1">
          <mxGeometry x="10" y="20" width="100" height="30" as="geometry" />
        </mxCell>
        <mxCell id="8J_cx7qvvRJhHvNwfViD-5" value=":Nhân viên khoa" style="shape=umlActor;verticalLabelPosition=bottom;verticalAlign=top;html=1;outlineConnect=0;" vertex="1" parent="1">
          <mxGeometry x="50" y="190" width="30" height="60" as="geometry" />
        </mxCell>
        <mxCell id="8J_cx7qvvRJhHvNwfViD-6" value="" style="strokeWidth=2;html=1;shape=mxgraph.flowchart.database;whiteSpace=wrap;" vertex="1" parent="1">
          <mxGeometry x="230" y="190" width="40" height="60" as="geometry" />
        </mxCell>
        <mxCell id="8J_cx7qvvRJhHvNwfViD-8" value="" style="line;strokeWidth=2;html=1;" vertex="1" parent="1">
          <mxGeometry x="90" y="215" width="120" height="10" as="geometry" />
        </mxCell>
        <mxCell id="8J_cx7qvvRJhHvNwfViD-14" value=":CSDL &lt;br&gt;các lớp" style="text;html=1;strokeColor=none;fillColor=none;align=center;verticalAlign=middle;whiteSpace=wrap;rounded=0;" vertex="1" parent="1">
          <mxGeometry x="220" y="260" width="60" height="30" as="geometry" />
        </mxCell>
        <mxCell id="8J_cx7qvvRJhHvNwfViD-18" value="" style="group" vertex="1" connectable="0" parent="1">
          <mxGeometry x="80" y="110" width="150" height="30" as="geometry" />
        </mxCell>
        <mxCell id="8J_cx7qvvRJhHvNwfViD-15" value="1: kiểm tra số lượng sv trong lớp(Số lượng)" style="text;html=1;strokeColor=none;fillColor=none;align=center;verticalAlign=middle;whiteSpace=wrap;rounded=0;" vertex="1" parent="8J_cx7qvvRJhHvNwfViD-18">
          <mxGeometry y="-20" width="110" height="50" as="geometry" />
        </mxCell>
        <mxCell id="8J_cx7qvvRJhHvNwfViD-17" value="" style="html=1;shadow=0;dashed=0;align=center;verticalAlign=middle;shape=mxgraph.arrows2.arrow;dy=0.67;dx=9.83;notch=0;fillColor=#1A1A1A;" vertex="1" parent="8J_cx7qvvRJhHvNwfViD-18">
          <mxGeometry x="120" y="5" width="22.5" height="15" as="geometry" />
        </mxCell>
        <mxCell id="8J_cx7qvvRJhHvNwfViD-19" value="" style="group" vertex="1" connectable="0" parent="1">
          <mxGeometry x="80" y="160" width="150" height="40" as="geometry" />
        </mxCell>
        <mxCell id="8J_cx7qvvRJhHvNwfViD-20" value="2: kiểm tra thông tin SV trong lớp&lt;br&gt;(MSV, Tên SV)" style="text;html=1;strokeColor=none;fillColor=none;align=center;verticalAlign=middle;whiteSpace=wrap;rounded=0;" vertex="1" parent="8J_cx7qvvRJhHvNwfViD-19">
          <mxGeometry width="110" height="40" as="geometry" />
        </mxCell>
        <mxCell id="8J_cx7qvvRJhHvNwfViD-32" value="" style="html=1;shadow=0;dashed=0;align=center;verticalAlign=middle;shape=mxgraph.arrows2.arrow;dy=0.67;dx=9.83;notch=0;fillColor=#1A1A1A;" vertex="1" parent="8J_cx7qvvRJhHvNwfViD-19">
          <mxGeometry x="120" y="10" width="22.5" height="20" as="geometry" />
        </mxCell>
        <mxCell id="8J_cx7qvvRJhHvNwfViD-22" value="" style="strokeWidth=2;html=1;shape=mxgraph.flowchart.database;whiteSpace=wrap;" vertex="1" parent="1">
          <mxGeometry x="440" y="190" width="40" height="60" as="geometry" />
        </mxCell>
        <mxCell id="8J_cx7qvvRJhHvNwfViD-23" value="" style="line;strokeWidth=2;html=1;" vertex="1" parent="1">
          <mxGeometry x="300" y="215" width="120" height="10" as="geometry" />
        </mxCell>
        <mxCell id="8J_cx7qvvRJhHvNwfViD-24" value=":CSDL &lt;br&gt;Sinh VIên" style="text;html=1;strokeColor=none;fillColor=none;align=center;verticalAlign=middle;whiteSpace=wrap;rounded=0;" vertex="1" parent="1">
          <mxGeometry x="430" y="260" width="60" height="30" as="geometry" />
        </mxCell>
        <mxCell id="8J_cx7qvvRJhHvNwfViD-25" value="" style="group" vertex="1" connectable="0" parent="1">
          <mxGeometry x="279" y="160" width="150" height="50" as="geometry" />
        </mxCell>
        <mxCell id="8J_cx7qvvRJhHvNwfViD-26" value="3: Lấy thông tin sinh viên trong lớp(MSV, Tên SV)" style="text;html=1;strokeColor=none;fillColor=none;align=center;verticalAlign=middle;whiteSpace=wrap;rounded=0;" vertex="1" parent="8J_cx7qvvRJhHvNwfViD-25">
          <mxGeometry x="10" y="8.333333333333332" width="110" height="50" as="geometry" />
        </mxCell>
        <mxCell id="8J_cx7qvvRJhHvNwfViD-27" value="" style="html=1;shadow=0;dashed=0;align=center;verticalAlign=middle;shape=mxgraph.arrows2.arrow;dy=0.7;dx=15;notch=0;fillColor=#1A1A1A;" vertex="1" parent="8J_cx7qvvRJhHvNwfViD-25">
          <mxGeometry x="126" y="18.333333333333336" width="30" height="33.33333333333333" as="geometry" />
        </mxCell>
      </root>
    </mxGraphModel>
  </diagram>
</mxfile>
